<svg xmlns="http://www.w3.org/2000/svg" width="20" height="20" viewBox="0 0 20 20" fill="none">
    <path d="M9.99992 1.65161L11.7003 3.85424L11.909 4.12456L12.2367 4.02853L14.907 3.24601L14.988 6.02744L14.9979 6.3688L15.3195 6.48373L17.9398 7.42023L16.3704 9.71804L16.1778 10L16.3704 10.282L17.9398 12.5798L15.3195 13.5164L14.9979 13.6313L14.988 13.9726L14.907 16.7541L12.2367 15.9716L11.909 15.8755L11.7003 16.1458L9.99992 18.3485L8.29954 16.1458L8.09086 15.8755L7.76314 15.9716L5.09283 16.7541L5.01188 13.9726L5.00194 13.6313L4.68036 13.5164L2.06009 12.5798L3.62947 10.282L3.82208 10L3.62947 9.71804L2.06009 7.42023L4.68036 6.48373L5.00194 6.3688L5.01188 6.02744L5.09283 3.24602L7.76314 4.02853L8.09086 4.12456L8.29954 3.85424L9.99992 1.65161Z" stroke="black"></path>
    <path d="M6.66675 10L9.16675 12.5L13.3334 8.33337" stroke="black" stroke-linecap="round"></path>
  </svg>